<svg xmlns="http://www.w3.org/2000/svg" xmlns:xlink="http://www.w3.org/1999/xlink" contentStyleType="text/css" data-diagram-type="DESCRIPTION" height="712px" preserveAspectRatio="none" style="width:895px;height:712px;background:#FFFFFF;" version="1.1" viewBox="0 0 895 712" width="895px" zoomAndPan="magnify"><title>Kafka Data Flow Diagram</title><defs/><g><text fill="#000000" font-family="sans-serif" font-size="14" font-weight="bold" lengthAdjust="spacing" textLength="200.7168" x="340.2422" y="22.9951">Kafka Data Flow Diagram</text><!--entity SOURCE producer--><g class="entity" data-entity="SOURCE producer" data-source-line="10" data-uid="ent0002" id="entity_SOURCE producer"><polygon fill="#FFFFFF" points="371,53.2969,381,43.2969,536.9863,43.2969,536.9863,79.5938,526.9863,89.5938,371,89.5938,371,53.2969" style="stroke:#000000;stroke-width:0.5;"/><line style="stroke:#000000;stroke-width:0.5;" x1="526.9863" x2="536.9863" y1="53.2969" y2="43.2969"/><line style="stroke:#000000;stroke-width:0.5;" x1="371" x2="526.9863" y1="53.2969" y2="53.2969"/><line style="stroke:#000000;stroke-width:0.5;" x1="526.9863" x2="526.9863" y1="53.2969" y2="89.5938"/><text fill="#000000" font-family="sans-serif" font-size="14" lengthAdjust="spacing" textLength="125.9863" x="386" y="76.292">SOURCE producer</text></g><!--entity SINK_1 consumer--><g class="entity" data-entity="SINK_1 consumer" data-source-line="11" data-uid="ent0003" id="entity_SINK_1 consumer"><polygon fill="#FFFFFF" points="25,659.2969,35,649.2969,187.3359,649.2969,187.3359,685.5938,177.3359,695.5938,25,695.5938,25,659.2969" style="stroke:#000000;stroke-width:0.5;"/><line style="stroke:#000000;stroke-width:0.5;" x1="177.3359" x2="187.3359" y1="659.2969" y2="649.2969"/><line style="stroke:#000000;stroke-width:0.5;" x1="25" x2="177.3359" y1="659.2969" y2="659.2969"/><line style="stroke:#000000;stroke-width:0.5;" x1="177.3359" x2="177.3359" y1="659.2969" y2="695.5938"/><text fill="#000000" font-family="sans-serif" font-size="14" lengthAdjust="spacing" textLength="122.3359" x="40" y="682.292">SINK_1 consumer</text></g><!--entity SINK_n consumer--><g class="entity" data-entity="SINK_n consumer" data-source-line="12" data-uid="ent0004" id="entity_SINK_n consumer"><polygon fill="#FFFFFF" points="259,659.2969,269,649.2969,421.3018,649.2969,421.3018,685.5938,411.3018,695.5938,259,695.5938,259,659.2969" style="stroke:#000000;stroke-width:0.5;"/><line style="stroke:#000000;stroke-width:0.5;" x1="411.3018" x2="421.3018" y1="659.2969" y2="649.2969"/><line style="stroke:#000000;stroke-width:0.5;" x1="259" x2="411.3018" y1="659.2969" y2="659.2969"/><line style="stroke:#000000;stroke-width:0.5;" x1="411.3018" x2="411.3018" y1="659.2969" y2="695.5938"/><text fill="#000000" font-family="sans-serif" font-size="14" lengthAdjust="spacing" textLength="122.3018" x="274" y="682.292">SINK_n consumer</text></g><!--entity Cleaner--><g class="entity" data-entity="Cleaner" data-source-line="15" data-uid="ent0005" id="entity_Cleaner"><polygon fill="#FFFFFF" points="390,255.2969,400,245.2969,518.0059,245.2969,518.0059,281.5938,508.0059,291.5938,390,291.5938,390,255.2969" style="stroke:#000000;stroke-width:0.5;"/><line style="stroke:#000000;stroke-width:0.5;" x1="508.0059" x2="518.0059" y1="255.2969" y2="245.2969"/><line style="stroke:#000000;stroke-width:0.5;" x1="390" x2="508.0059" y1="255.2969" y2="255.2969"/><line style="stroke:#000000;stroke-width:0.5;" x1="508.0059" x2="508.0059" y1="255.2969" y2="291.5938"/><text fill="#000000" font-family="sans-serif" font-size="14" lengthAdjust="spacing" textLength="88.0059" x="405" y="278.292">data cleaner</text></g><!--entity Approval--><g class="entity" data-entity="Approval" data-source-line="16" data-uid="ent0006" id="entity_Approval"><polygon fill="#FFFFFF" points="376,457.2969,386,447.2969,532.0264,447.2969,532.0264,483.5938,522.0264,493.5938,376,493.5938,376,457.2969" style="stroke:#000000;stroke-width:0.5;"/><line style="stroke:#000000;stroke-width:0.5;" x1="522.0264" x2="532.0264" y1="457.2969" y2="447.2969"/><line style="stroke:#000000;stroke-width:0.5;" x1="376" x2="522.0264" y1="457.2969" y2="457.2969"/><line style="stroke:#000000;stroke-width:0.5;" x1="522.0264" x2="522.0264" y1="457.2969" y2="493.5938"/><text fill="#000000" font-family="sans-serif" font-size="14" lengthAdjust="spacing" textLength="116.0264" x="391" y="480.292">approval service</text></g><!--entity Approved1--><g class="entity" data-entity="Approved1" data-source-line="18" data-uid="ent0007" id="entity_Approved1"><rect fill="#F1F1F1" height="36.2969" rx="2.5" ry="2.5" style="stroke:#181818;stroke-width:0.5;" width="197.5361" x="7" y="553.2969"/><text fill="#000000" font-family="sans-serif" font-size="14" lengthAdjust="spacing" textLength="177.5361" x="17" y="576.292">content.SINK_1.approved</text></g><!--entity ApprovedN--><g class="entity" data-entity="ApprovedN" data-source-line="19" data-uid="ent0008" id="entity_ApprovedN"><rect fill="#F1F1F1" height="36.2969" rx="2.5" ry="2.5" style="stroke:#181818;stroke-width:0.5;" width="199.1016" x="240.5" y="553.2969"/><text fill="#000000" font-family="sans-serif" font-size="14" lengthAdjust="spacing" textLength="179.1016" x="250.5" y="576.292">content.SINK_N.approved</text></g><!--entity Rejected1--><g class="entity" data-entity="Rejected1" data-source-line="20" data-uid="ent0009" id="entity_Rejected1"><rect fill="#F1F1F1" height="36.2969" rx="2.5" ry="2.5" style="stroke:#181818;stroke-width:0.5;" width="188.6357" x="474.5" y="553.2969"/><text fill="#000000" font-family="sans-serif" font-size="14" lengthAdjust="spacing" textLength="168.6357" x="484.5" y="576.292">content.SINK_1.rejected</text></g><!--entity RejectedN--><g class="entity" data-entity="RejectedN" data-source-line="21" data-uid="ent0010" id="entity_RejectedN"><rect fill="#F1F1F1" height="36.2969" rx="2.5" ry="2.5" style="stroke:#181818;stroke-width:0.5;" width="190.2012" x="699" y="553.2969"/><text fill="#000000" font-family="sans-serif" font-size="14" lengthAdjust="spacing" textLength="170.2012" x="709" y="576.292">content.SINK_N.rejected</text></g><!--entity Raw--><g class="entity" data-entity="Raw" data-source-line="24" data-uid="ent0011" id="entity_Raw"><rect fill="#F1F1F1" height="36.2969" rx="2.5" ry="2.5" style="stroke:#181818;stroke-width:0.5;" width="103.8359" x="402" y="149.2969"/><text fill="#000000" font-family="sans-serif" font-size="14" lengthAdjust="spacing" textLength="83.8359" x="412" y="172.292">raw.content</text></g><!--entity Cleaned--><g class="entity" data-entity="Cleaned" data-source-line="25" data-uid="ent0012" id="entity_Cleaned"><rect fill="#F1F1F1" height="36.2969" rx="2.5" ry="2.5" style="stroke:#181818;stroke-width:0.5;" width="133.2031" x="387.5" y="351.2969"/><text fill="#000000" font-family="sans-serif" font-size="14" lengthAdjust="spacing" textLength="113.2031" x="397.5" y="374.292">cleaned.content</text></g><!--link SOURCE producer to Raw--><g class="link" data-entity-1="SOURCE producer" data-entity-2="Raw" data-source-line="27" data-uid="lnk13" id="link_SOURCE producer_Raw"><path d="M454,89.4669 C454,107.6369 454,126.5669 454,143.2669" fill="none" id="SOURCE producer-to-Raw" style="stroke:#181818;stroke-width:1;"/><polygon fill="#181818" points="454,149.2669,458,140.2669,454,144.2669,450,140.2669,454,149.2669" style="stroke:#181818;stroke-width:1;"/></g><!--link Raw to Cleaner--><g class="link" data-entity-1="Raw" data-entity-2="Cleaner" data-source-line="29" data-uid="lnk14" id="link_Raw_Cleaner"><path d="M454,185.3569 C454,202.0369 454,220.9069 454,239.0669" fill="none" id="Raw-to-Cleaner" style="stroke:#181818;stroke-width:1;"/><polygon fill="#181818" points="454,245.0669,458,236.0669,454,240.0669,450,236.0669,454,245.0669" style="stroke:#181818;stroke-width:1;"/></g><!--link Cleaner to Cleaned--><g class="link" data-entity-1="Cleaner" data-entity-2="Cleaned" data-source-line="30" data-uid="lnk15" id="link_Cleaner_Cleaned"><path d="M454,291.4669 C454,309.6369 454,328.5669 454,345.2669" fill="none" id="Cleaner-to-Cleaned" style="stroke:#181818;stroke-width:1;"/><polygon fill="#181818" points="454,351.2669,458,342.2669,454,346.2669,450,342.2669,454,351.2669" style="stroke:#181818;stroke-width:1;"/></g><!--link Cleaned to Approval--><g class="link" data-entity-1="Cleaned" data-entity-2="Approval" data-source-line="31" data-uid="lnk16" id="link_Cleaned_Approval"><path d="M454,387.3569 C454,404.0369 454,422.9069 454,441.0669" fill="none" id="Cleaned-to-Approval" style="stroke:#181818;stroke-width:1;"/><polygon fill="#181818" points="454,447.0669,458,438.0669,454,442.0669,450,438.0669,454,447.0669" style="stroke:#181818;stroke-width:1;"/></g><!--link Approval to Approved1--><g class="link" data-entity-1="Approval" data-entity-2="Approved1" data-source-line="33" data-uid="lnk17" id="link_Approval_Approved1"><path d="M375.9,470.2969 C273.3,470.2969 106,470.2969 106,470.2969 C106,470.2969 106,518.1869 106,547.2369" fill="none" id="Approval-to-Approved1" style="stroke:#181818;stroke-width:1;"/><polygon fill="#181818" points="106,553.2369,110,544.2369,106,548.2369,102,544.2369,106,553.2369" style="stroke:#181818;stroke-width:1;"/></g><!--link Approval to ApprovedN--><g class="link" data-entity-1="Approval" data-entity-2="ApprovedN" data-source-line="34" data-uid="lnk18" id="link_Approval_ApprovedN"><path d="M407.75,493.4669 C407.75,511.6369 407.75,530.5669 407.75,547.2669" fill="none" id="Approval-to-ApprovedN" style="stroke:#181818;stroke-width:1;"/><polygon fill="#181818" points="407.75,553.2669,411.75,544.2669,407.75,548.2669,403.75,544.2669,407.75,553.2669" style="stroke:#181818;stroke-width:1;"/></g><!--link Approval to Rejected1--><g class="link" data-entity-1="Approval" data-entity-2="Rejected1" data-source-line="35" data-uid="lnk19" id="link_Approval_Rejected1"><path d="M503.25,493.4669 C503.25,511.6369 503.25,530.5669 503.25,547.2669" fill="none" id="Approval-to-Rejected1" style="stroke:#181818;stroke-width:1;"/><polygon fill="#181818" points="503.25,553.2669,507.25,544.2669,503.25,548.2669,499.25,544.2669,503.25,553.2669" style="stroke:#181818;stroke-width:1;"/></g><!--link Approval to RejectedN--><g class="link" data-entity-1="Approval" data-entity-2="RejectedN" data-source-line="36" data-uid="lnk20" id="link_Approval_RejectedN"><path d="M532,470.2969 C632.38,470.2969 794,470.2969 794,470.2969 C794,470.2969 794,518.1869 794,547.2369" fill="none" id="Approval-to-RejectedN" style="stroke:#181818;stroke-width:1;"/><polygon fill="#181818" points="794,553.2369,798,544.2369,794,548.2369,790,544.2369,794,553.2369" style="stroke:#181818;stroke-width:1;"/></g><!--link Approved1 to SINK_1 consumer--><g class="link" data-entity-1="Approved1" data-entity-2="SINK_1 consumer" data-source-line="39" data-uid="lnk21" id="link_Approved1_SINK_1 consumer"><path d="M106,589.3569 C106,606.0369 106,624.9069 106,643.0669" fill="none" id="Approved1-to-SINK_1 consumer" style="stroke:#181818;stroke-width:1;"/><polygon fill="#181818" points="106,649.0669,110,640.0669,106,644.0669,102,640.0669,106,649.0669" style="stroke:#181818;stroke-width:1;"/></g><!--link ApprovedN to SINK_n consumer--><g class="link" data-entity-1="ApprovedN" data-entity-2="SINK_n consumer" data-source-line="40" data-uid="lnk22" id="link_ApprovedN_SINK_n consumer"><path d="M340,589.3569 C340,606.0369 340,624.9069 340,643.0669" fill="none" id="ApprovedN-to-SINK_n consumer" style="stroke:#181818;stroke-width:1;"/><polygon fill="#181818" points="340,649.0669,344,640.0669,340,644.0669,336,640.0669,340,649.0669" style="stroke:#181818;stroke-width:1;"/></g><!--SRC=[VPBTJiCm38NlynJMxZTfBu2q7v3Gf28D49V8IhmkD4kgD5r1Y7SdJTCkPMKtQVBPvpXsKnLIbsZn14fgSbybWR7kQ5Wr10GTi5RkXJxTIibSdqWxu7uXcsHf8mY-6S0QUP5RKsknCSfOU3jAHoqtLf3js5hv9FR3c9DE4UpmK21iqI4yADF0LcBkFHaBfhFdfzVzvXvAQqJDoSvw_9ZjtfV0ZQxgqn-i4zpRYDQVAqBjAM05csuVmrZw0cTKK94zIquXPHKXOvQuGvtxsywyjVFjBxeBB3eXYKH0Olcl89iMP3SgMFhmiIZOnyEj2fE2Z8swiDWiegnBmsRa68OZHYdTm0HZLxy4vlExuC3y4WxzSECtOI8o4TXbmlqkmMsNapWRuyjC9d7R-M0O8jUFPt1Euiah-WK0]--></g></svg>